<?xml version="1.0" standalone="no"?>
<!DOCTYPE svg PUBLIC "-//W3C//DTD SVG 20010904//EN"
 "http://www.w3.org/TR/2001/REC-SVG-20010904/DTD/svg10.dtd">
<svg version="1.0" xmlns="http://www.w3.org/2000/svg"
 width="599.000000pt" height="370.000000pt" viewBox="0 0 599.000000 370.000000"
 preserveAspectRatio="xMidYMid meet">

<g transform="translate(0.000000,370.000000) scale(0.100000,-0.100000)"
fill="#000000" stroke="none">
<path d="M4025 3692 c-55 -18 -75 -50 -75 -118 0 -45 3 -50 70 -117 58 -59 70
-77 70 -104 0 -26 -4 -33 -19 -33 -21 0 -31 19 -31 56 0 22 -4 24 -45 24 l-45
0 0 -54 c0 -76 27 -107 98 -114 70 -6 99 3 122 41 24 39 27 125 6 165 -8 15
-42 51 -76 81 -61 53 -75 86 -35 86 13 0 21 -8 23 -22 3 -20 9 -23 53 -23 43
0 49 3 49 20 0 83 -82 139 -165 112z"/>
<path d="M4695 3693 c-64 -14 -95 -57 -95 -133 l0 -40 50 0 c48 0 50 1 50 28
0 16 6 37 14 47 12 16 16 17 30 6 31 -26 19 -66 -39 -133 -67 -76 -105 -149
-105 -200 l0 -38 130 0 130 0 0 45 0 45 -65 0 c-45 0 -65 4 -65 13 0 6 23 38
50 71 66 77 80 105 80 165 0 61 -33 105 -88 121 -38 10 -44 11 -77 3z"/>
<path d="M4981 3687 c-65 -23 -76 -51 -79 -206 -4 -158 6 -198 60 -231 25 -16
45 -20 85 -17 99 7 123 52 122 229 0 135 -11 182 -49 209 -33 24 -97 32 -139
16z m77 -211 c3 -133 -6 -169 -34 -145 -11 9 -14 43 -14 139 0 69 3 130 7 134
4 4 14 5 23 4 12 -3 15 -25 18 -132z"/>
<path d="M5294 3691 c-17 -4 -36 -11 -43 -16 -20 -12 -41 -71 -41 -115 l0 -40
50 0 50 0 0 34 c0 42 23 64 46 45 28 -23 11 -73 -46 -136 -62 -70 -100 -144
-100 -195 l0 -38 130 0 130 0 0 45 0 44 -71 3 -72 3 44 54 c84 102 99 130 99
187 0 64 -32 108 -88 124 -41 11 -44 11 -88 1z"/>
<path d="M5591 3687 c-64 -23 -76 -52 -79 -200 -5 -197 18 -246 120 -255 65
-5 117 25 135 78 15 45 15 265 0 309 -22 63 -104 95 -176 68z m77 -211 c3
-133 -6 -169 -34 -145 -11 9 -14 43 -14 139 0 69 3 130 7 134 4 4 14 5 23 4
12 -3 15 -25 18 -132z"/>
<path d="M3704 3677 c-2 -7 -3 -109 -2 -227 l3 -215 103 -3 102 -3 0 45 0 45
-52 3 -53 3 0 50 0 50 48 3 47 3 0 39 0 39 -47 3 -48 3 0 45 0 45 53 3 52 3 0
40 0 39 -100 0 c-72 0 -102 -4 -106 -13z"/>
<path d="M4210 3650 c0 -38 2 -40 30 -40 l30 0 0 -190 0 -190 50 0 50 0 2 188
3 187 28 3 c24 3 27 7 27 43 l0 39 -110 0 -110 0 0 -40z"/>
<path d="M120 3150 l0 -40 2900 0 2900 0 0 40 0 40 -2900 0 -2900 0 0 -40z"/>
<path d="M120 1990 l0 -1050 131 0 c126 0 130 -1 125 -20 -3 -11 -9 -29 -12
-40 -5 -19 -14 -20 -125 -20 l-119 0 0 -35 0 -35 95 0 c67 0 97 -4 100 -13 4
-9 -172 -502 -264 -739 l-11 -28 76 0 75 0 25 57 c14 32 57 121 94 198 90 182
158 261 201 235 15 -10 4 -51 -55 -215 -52 -145 -48 -222 14 -258 72 -43 141
-9 249 123 l20 25 1 -42 c0 -54 15 -86 50 -106 63 -37 122 -17 198 68 l49 56
6 -43 c13 -94 111 -129 195 -68 23 17 47 39 54 50 17 27 23 25 46 -13 61 -105
253 -82 319 38 23 43 48 71 74 86 15 7 16 4 8 -29 -8 -37 -6 -54 13 -105 20
-51 98 -73 156 -43 28 14 101 88 137 139 l20 27 0 -61 c0 -56 3 -63 33 -90 40
-36 98 -39 149 -8 32 20 107 102 144 159 17 25 17 25 17 -28 1 -102 57 -152
168 -152 85 0 153 36 217 116 52 63 162 273 155 294 -2 7 -37 -39 -77 -101
-92 -142 -150 -212 -195 -233 -49 -23 -74 -20 -108 15 -29 29 -30 33 -25 88 4
32 11 70 16 84 10 25 11 25 40 11 66 -33 170 33 206 130 17 43 17 52 4 89 -19
54 -56 79 -121 84 -99 8 -187 -67 -238 -205 -40 -106 -191 -302 -233 -302 -36
0 -17 72 93 373 61 164 115 307 121 318 9 19 48 19 1749 19 l1740 0 0 35 0 35
-1729 0 -1730 0 13 37 13 38 1279 2 c703 2 1476 3 1717 3 l437 0 0 1050 0
1050 -2900 0 -2900 0 0 -1050z m4025 891 c22 -10 57 -36 77 -59 70 -77 69 -65
66 -843 l-3 -694 -23 -50 c-31 -68 -76 -111 -139 -135 -143 -53 -291 13 -339
151 -18 51 -19 97 -19 754 0 694 0 700 21 745 65 137 219 193 359 131z m-2663
-14 c24 -14 56 -43 71 -64 57 -82 57 -86 57 -935 l0 -778 -110 0 -110 0 0 270
0 270 -45 0 -45 0 0 -270 0 -270 -110 0 -110 0 0 788 c0 879 -2 857 67 933 62
68 117 90 219 85 55 -2 82 -9 116 -29z m-1018 1 c4 -20 75 -670 92 -850 4 -38
10 -68 13 -68 3 0 23 152 45 338 21 185 45 397 53 470 l16 132 138 0 139 0 0
-900 0 -900 -115 0 -115 0 -1 448 -1 447 -32 -175 c-19 -96 -41 -219 -51 -273
l-18 -98 -61 3 -61 3 -45 275 -45 275 -3 -452 -2 -453 -110 0 -110 0 0 900 0
900 135 0 c132 0 135 -1 139 -22z m1525 -110 c13 -73 33 -191 46 -263 13 -71
26 -149 30 -173 4 -24 9 -41 12 -39 4 4 65 327 104 545 l11 62 125 0 c114 0
124 -1 119 -17 -6 -20 -73 -279 -161 -626 l-58 -228 46 -197 c26 -108 74 -311
107 -451 33 -139 60 -259 60 -267 0 -11 -24 -14 -118 -14 l-117 0 -19 103
c-70 390 -106 569 -106 520 0 -6 -22 -146 -50 -311 -27 -165 -50 -303 -50
-306 0 -3 -57 -6 -126 -6 -115 0 -125 1 -120 18 5 16 42 180 161 715 l45 198
-64 267 c-36 147 -76 317 -90 377 -15 61 -33 136 -40 168 l-14 57 122 0 123 0
22 -132z m1001 42 l0 -90 -125 0 -125 0 0 -300 0 -300 90 0 90 0 0 -95 0 -95
-90 0 -90 0 0 -320 0 -319 123 -3 122 -3 3 -93 3 -92 -238 2 -238 3 -3 898 -2
897 240 0 240 0 0 -90z m483 79 c47 -13 102 -60 130 -113 l22 -41 0 -725 0
-725 -23 -45 c-62 -118 -115 -140 -339 -140 l-153 0 0 900 0 900 163 0 c89 0
179 -5 200 -11z m1177 -783 c0 -681 2 -795 15 -806 24 -20 49 -8 57 30 4 19 7
379 7 800 l1 765 110 3 111 3 -3 -803 -3 -803 -24 -53 c-29 -65 -89 -118 -155
-137 -63 -19 -99 -19 -165 1 -66 19 -122 69 -152 137 l-24 52 -3 803 -3 802
116 0 115 0 0 -794z m898 692 l-3 -103 -72 -3 -73 -3 0 -794 0 -795 -110 0
-110 0 0 795 0 795 -60 0 -60 0 0 105 0 105 245 0 246 0 -3 -102z m-3538
-1857 c0 -4 -5 -22 -11 -40 l-11 -31 -739 0 c-406 0 -739 4 -739 9 0 4 5 22
11 39 l11 32 739 0 c406 0 739 -4 739 -9z m320 -5 c0 -8 -4 -26 -10 -40 -9
-25 -12 -26 -95 -26 -47 0 -85 4 -85 9 0 4 5 22 11 40 l11 31 84 0 c66 0 84
-3 84 -14z m-380 -151 c0 -8 -9 -39 -21 -70 -20 -55 -21 -55 -63 -55 -36 0
-45 -4 -55 -26 -15 -33 -9 -39 35 -35 19 1 34 -2 34 -8 0 -6 -19 -61 -41 -123
-37 -101 -47 -119 -97 -168 l-56 -55 -13 33 c-7 18 -36 67 -63 109 -53 81 -59
103 -36 123 13 10 13 16 -1 46 -19 39 -23 40 -63 19 -41 -21 -74 -88 -66 -135
5 -31 -1 -47 -42 -111 -67 -107 -117 -173 -158 -208 -88 -78 -86 -14 11 248
41 112 75 210 75 218 0 10 -18 13 -69 13 l-69 0 -22 -62 c-35 -97 -137 -292
-185 -356 -46 -61 -85 -89 -105 -77 -18 11 -9 43 75 271 41 113 75 210 75 215
0 5 -32 9 -70 9 -64 0 -71 -2 -80 -22 -5 -13 -25 -68 -46 -123 -59 -158 -214
-373 -262 -363 -28 6 -19 61 33 203 57 156 64 229 27 268 -53 57 -141 41 -220
-38 -30 -30 -52 -48 -49 -42 2 7 28 77 57 157 29 80 58 148 64 152 6 4 338 8
739 8 631 0 727 -2 727 -15z m330 7 c0 -26 -158 -426 -186 -470 -94 -148 -185
-245 -214 -227 -5 3 -10 17 -10 30 0 23 136 411 160 454 9 18 20 21 70 21 48
0 61 4 70 19 18 36 12 41 -50 41 -33 0 -60 2 -60 4 0 4 22 66 39 109 11 28 11
28 96 26 47 -1 85 -4 85 -7z m480 -288 c15 -39 -5 -98 -49 -145 -35 -35 -44
-40 -78 -37 -51 4 -54 31 -12 106 58 100 118 133 139 76z m-1230 -261 c0 -7
-7 -13 -15 -13 -9 0 -20 -12 -25 -26 -13 -34 -13 -40 6 -59 15 -15 15 -17 -1
-35 -21 -24 -72 -26 -101 -5 -40 27 -38 71 4 144 21 36 44 79 51 96 l13 30 34
-60 c18 -33 34 -66 34 -72z"/>
<path d="M4008 2709 c-17 -9 -18 -54 -18 -707 0 -530 3 -701 12 -710 20 -20
48 -14 58 14 6 15 10 285 10 697 0 593 -2 675 -16 695 -17 25 -22 26 -46 11z"/>
<path d="M1310 2684 c-6 -15 -10 -196 -10 -445 l0 -419 45 0 45 0 0 419 c0
249 -4 430 -10 445 -7 19 -17 26 -35 26 -18 0 -28 -7 -35 -26z"/>
<path d="M3337 2703 c-4 -3 -7 -323 -7 -710 l0 -703 30 0 c19 0 33 7 40 19 6
13 10 247 10 690 0 658 0 671 -20 691 -20 20 -41 25 -53 13z"/>
</g>
</svg>
