<?xml version="1.0" standalone="no"?>
<!DOCTYPE svg PUBLIC "-//W3C//DTD SVG 20010904//EN"
 "http://www.w3.org/TR/2001/REC-SVG-20010904/DTD/svg10.dtd">
<svg version="1.0" xmlns="http://www.w3.org/2000/svg"
 width="476.000000pt" height="600.000000pt" viewBox="0 0 476.000000 600.000000"
 preserveAspectRatio="xMidYMid meet">

<g transform="translate(0.000000,600.000000) scale(0.100000,-0.100000)"
fill="#000000" stroke="none">
<path d="M3238 5632 c-43 -3 -49 -7 -90 -60 l-43 -57 -3 -195 -4 -195 42 -87
c42 -91 48 -96 115 -101 l30 -2 3 88 c3 81 1 87 -17 87 -11 0 -22 4 -25 9 -3
5 -3 95 1 200 6 189 6 191 28 191 25 0 35 22 35 76 0 41 -14 50 -72 46z"/>
<path d="M3342 5631 c-9 -5 -12 -25 -10 -62 3 -47 6 -54 26 -57 21 -3 22 -6
22 -131 0 -70 -3 -163 -6 -205 -6 -70 -9 -77 -28 -74 -17 2 -22 -4 -28 -37 -4
-22 -7 -61 -7 -87 -1 -54 11 -65 73 -70 l38 -3 46 84 46 85 7 215 c8 232 9
223 -48 303 -32 44 -38 48 -76 48 -23 0 -48 -4 -55 -9z"/>
<path d="M3597 5633 c-3 -5 -7 -136 -11 -293 l-6 -285 39 -110 38 -110 47 -14
c25 -8 49 -11 53 -8 3 4 8 54 11 111 l4 103 -27 7 -28 7 6 112 c6 89 10 376 7
470 0 14 -10 17 -64 17 -36 0 -67 -3 -69 -7z"/>
<path d="M3867 5633 c-4 -3 -8 -92 -8 -197 -1 -105 -4 -240 -8 -301 -6 -106
-7 -109 -31 -115 -25 -6 -25 -8 -28 -116 l-3 -110 51 -16 c59 -19 48 -30 109
116 l41 99 10 256 c5 141 10 286 10 324 l0 67 -68 0 c-38 0 -72 -3 -75 -7z"/>
<path d="M4062 5573 l3 -68 174 -3 c119 -2 178 1 187 9 9 7 14 32 14 70 l0 59
-190 0 -191 0 3 -67z"/>
<path d="M2064 5622 l-51 -3 -7 -52 c-3 -29 -6 -168 -6 -311 l0 -259 67 7 c37
4 71 12 75 19 4 7 8 67 8 135 l0 122 60 0 c68 0 83 15 78 78 l-3 37 -67 3 -68
3 0 108 c0 123 4 118 -86 113z"/>
<path d="M2177 5624 c-4 -4 -7 -29 -7 -56 l0 -48 44 0 c41 0 45 -2 48 -27 3
-27 5 -28 68 -28 l65 0 0 80 0 80 -106 3 c-58 1 -108 -1 -112 -4z"/>
<path d="M2466 5622 c-2 -4 -6 -140 -7 -302 l-3 -295 70 0 69 0 3 303 2 302
-64 0 c-36 0 -67 -3 -70 -8z"/>
<path d="M2630 5575 l0 -55 50 0 50 0 -2 -187 -3 -188 -50 0 -50 0 0 -65 0
-65 73 -5 c40 -3 76 -4 81 -2 5 2 27 31 49 65 l40 62 7 190 7 190 -44 57 -43
57 -82 1 -83 0 0 -55z"/>
<path d="M923 5612 l-63 -3 0 -454 c0 -255 4 -456 9 -459 7 -5 117 37 130 50
8 7 2 857 -6 863 -4 3 -36 5 -70 3z"/>
<path d="M1226 5611 c-3 -5 14 -89 39 -187 25 -99 48 -200 51 -225 l6 -46 -36
-7 c-20 -4 -36 -8 -36 -9 0 -1 -6 -39 -14 -85 -16 -98 -14 -101 63 -82 28 6
54 9 59 6 5 -3 12 -24 15 -47 3 -22 8 -43 11 -46 5 -6 262 54 286 66 20 10 62
139 56 171 -3 14 -19 56 -36 95 l-32 69 -16 -29 c-8 -17 -35 -86 -59 -155 -24
-69 -46 -131 -49 -139 -8 -24 -15 -6 -44 127 -32 147 -113 463 -129 505 -10
25 -14 27 -70 27 -33 0 -62 -4 -65 -9z"/>
<path d="M1540 5611 c0 -6 27 -68 61 -138 33 -70 95 -209 136 -308 41 -99 78
-183 81 -187 4 -3 39 -1 77 6 55 9 69 15 67 28 -4 24 -113 270 -199 449 l-76
159 -74 0 c-40 0 -73 -4 -73 -9z"/>
<path d="M1791 5569 c-11 -29 -21 -58 -21 -66 0 -19 58 -133 68 -133 8 0 122
227 122 243 0 4 -33 7 -74 7 l-73 0 -22 -51z"/>
<path d="M490 5600 c0 -6 22 -77 50 -158 60 -180 108 -364 155 -598 19 -98 37
-180 40 -182 5 -5 11 21 25 118 7 41 27 149 46 240 31 150 34 179 34 338 0
103 -4 171 -9 167 -5 -3 -24 -49 -41 -103 -18 -53 -36 -101 -40 -105 -4 -4
-26 47 -50 115 -65 187 -58 178 -140 178 -41 0 -70 -4 -70 -10z"/>
<path d="M1156 5423 c-53 -218 -119 -633 -103 -649 6 -6 92 20 116 35 9 6 21
67 37 182 13 96 30 212 39 259 17 85 16 86 -10 195 -14 61 -30 114 -34 118 -5
5 -25 -58 -45 -140z"/>
<path d="M480 5010 c0 -280 4 -510 8 -510 5 0 34 14 65 31 l57 31 0 277 c0
248 -2 286 -21 357 -25 98 -98 324 -105 324 -2 0 -4 -229 -4 -510z"/>
<path d="M4176 5468 c-8 -28 -35 -793 -28 -799 20 -17 124 -51 132 -43 11 11
46 813 37 837 -5 14 -20 17 -72 17 -44 0 -67 -4 -69 -12z"/>
<path d="M2250 5181 c0 -30 -14 -41 -56 -41 -23 0 -24 -3 -24 -66 l0 -67 46 7
c26 3 75 6 110 6 l64 0 0 95 0 95 -70 0 -70 0 0 -29z"/>
<path d="M2603 4917 c-34 -12 -75 -35 -92 -51 l-29 -28 -56 27 c-64 31 -109
30 -152 -4 -33 -26 -79 -39 -171 -47 -85 -8 -94 -15 -151 -124 l-39 -75 -48
-2 c-52 -2 -73 -16 -101 -68 -13 -25 -30 -39 -63 -50 -43 -15 -91 -50 -91 -67
0 -4 -14 -39 -31 -78 -31 -69 -32 -70 -69 -70 -44 0 -82 -36 -143 -136 -29
-48 -37 -72 -37 -108 0 -35 -15 -80 -60 -182 -76 -172 -77 -174 -51 -229 12
-25 21 -50 21 -56 0 -6 8 -23 19 -37 41 -58 73 -138 88 -216 17 -93 40 -143
80 -177 97 -83 145 -187 145 -312 -1 -42 -3 -81 -6 -85 -2 -4 -9 -46 -16 -92
-20 -155 -78 -379 -151 -583 -51 -143 -91 -290 -95 -347 -2 -39 -1 -43 10 -27
17 22 33 22 39 0 4 -15 6 -15 12 5 4 12 14 22 22 22 9 0 13 6 9 15 -9 24 10
17 23 -8 11 -21 11 -20 7 8 l-4 29 30 -34 c17 -20 25 -26 19 -13 -13 26 -14
53 -3 53 4 0 16 -14 26 -31 23 -39 33 -31 11 11 -34 66 -4 38 56 -52 34 -51
66 -97 72 -103 10 -10 -53 110 -81 153 -13 20 -13 22 2 16 20 -8 20 -1 0 37
-8 17 -14 33 -11 35 6 7 50 -53 88 -121 43 -77 98 -165 104 -165 14 0 -35 97
-120 235 -63 105 -87 162 -42 100 12 -16 37 -45 55 -62 18 -18 51 -63 73 -100
21 -37 39 -62 39 -55 0 15 -52 120 -87 175 -22 34 -67 176 -59 185 2 1 20 -30
41 -70 56 -107 87 -159 92 -154 2 2 -23 57 -55 123 -67 131 -90 196 -45 123
58 -94 173 -265 173 -257 0 10 -85 175 -111 214 -11 18 -16 33 -10 33 6 0 33
-34 62 -76 28 -42 53 -74 55 -71 3 3 -20 50 -50 104 -31 55 -56 103 -56 108 0
19 45 -35 92 -112 28 -46 52 -83 54 -83 7 0 -24 69 -64 143 -101 188 -144 271
-135 262 16 -16 107 -155 141 -215 49 -86 38 -49 -34 113 -37 81 -64 150 -62
153 3 2 35 -43 72 -101 37 -57 72 -108 78 -111 10 -6 -40 91 -99 194 -14 23
-20 42 -14 42 9 0 9 6 1 23 -11 21 -10 21 4 3 9 -10 13 -22 11 -26 -3 -4 5
-16 16 -26 11 -10 36 -44 56 -77 19 -32 37 -56 40 -53 6 6 -65 145 -125 244
-24 40 -42 77 -40 84 2 6 22 -17 43 -53 44 -72 154 -229 162 -229 2 0 2 3 0 8
-7 12 -177 295 -194 322 -22 36 69 -64 124 -135 25 -33 51 -64 56 -70 11 -11
-25 53 -53 95 -34 49 -70 110 -67 110 2 0 32 -36 66 -80 34 -44 64 -80 67 -80
5 0 -39 72 -72 115 -33 45 -144 254 -144 271 1 5 12 -4 26 -21 l25 -30 -7 29
-7 29 37 -39 c21 -21 34 -32 30 -24 -4 8 10 -1 31 -20 32 -30 36 -32 25 -10
l-13 25 29 -25 28 -25 -19 30 c-10 17 -29 45 -41 64 -24 36 -23 60 1 27 8 -10
19 -15 26 -10 7 4 10 3 5 -4 -3 -6 -1 -14 5 -18 8 -4 9 -3 5 4 -4 7 -2 12 4
12 5 0 0 17 -13 38 -13 20 -27 42 -30 49 -11 17 34 13 55 -5 16 -13 19 -12 28
13 5 14 7 32 3 38 -4 7 0 8 11 4 10 -4 20 -7 22 -7 2 0 4 -7 4 -15 0 -8 5 -15
11 -15 9 0 10 -24 5 -85 -3 -48 -2 -85 3 -85 11 0 21 25 21 53 0 16 3 18 9 8
6 -10 11 -6 19 15 6 16 11 22 11 14 2 -24 20 10 22 40 1 20 3 18 9 -10 6 -28
8 -30 9 -10 1 14 6 32 11 40 8 12 10 10 11 -10 1 -16 4 -10 8 15 4 24 11 39
19 37 8 -1 12 14 12 50 1 34 4 48 9 38 18 -33 20 -113 6 -300 -8 -107 -15
-222 -15 -255 0 -33 -6 -96 -15 -139 -9 -47 -13 -98 -9 -126 4 -31 2 -50 -5
-54 -6 -4 -11 -20 -11 -36 0 -23 -3 -27 -20 -23 -15 4 -20 0 -20 -16 0 -12 -6
-21 -15 -21 -20 0 -20 -44 0 -100 20 -56 19 -61 -4 -24 -32 53 -60 60 -42 10
7 -18 7 -26 0 -26 -7 0 -9 -10 -4 -27 10 -43 127 -334 132 -329 2 2 -5 36 -17
76 -12 40 -19 74 -17 76 2 3 21 -34 42 -81 21 -47 42 -88 46 -91 4 -2 -10 48
-32 113 -21 65 -38 122 -36 127 2 5 27 -43 57 -107 30 -64 56 -114 58 -112 2
2 -15 61 -38 130 -23 69 -40 128 -37 131 4 5 51 -97 82 -179 30 -79 26 -48
-10 78 -18 66 -32 122 -30 124 3 2 9 -7 14 -20 22 -57 131 -270 131 -256 0 9
-5 28 -11 44 -14 37 -19 133 -7 133 5 0 6 10 2 23 -4 12 -7 48 -5 80 1 34 -7
86 -18 125 -24 81 -33 151 -37 257 -1 44 -9 181 -18 305 -19 269 -18 259 -7
242 10 -16 3 211 -8 281 -9 53 -4 61 32 48 16 -6 28 -6 36 2 16 16 13 27 -8
27 -10 0 -24 6 -30 13 -19 24 -43 100 -50 162 l-8 60 -16 -37 c-9 -21 -17 -51
-17 -67 0 -16 -9 -39 -20 -52 l-19 -24 -2 30 c-1 27 -2 25 -15 -16 -8 -25 -24
-55 -36 -65 l-21 -19 7 50 c4 28 9 64 11 80 3 17 -7 -7 -23 -53 -20 -60 -39
-93 -65 -120 -37 -37 -38 -37 -120 -37 -62 0 -90 4 -110 18 -14 9 -35 17 -46
17 -14 0 -19 5 -15 15 5 12 -4 15 -44 15 -53 0 -77 14 -43 25 25 8 16 35 -11
35 -34 0 -117 59 -85 61 6 0 -10 11 -38 24 -27 13 -42 24 -33 24 9 1 18 6 20
11 2 7 11 4 23 -5 19 -16 19 -16 -5 -10 -18 4 -21 3 -10 -3 8 -5 47 -9 85 -9
76 0 119 -9 110 -24 -11 -16 47 -10 60 7 6 9 25 17 43 19 17 1 37 7 44 12 7 6
18 12 24 14 13 4 81 59 121 96 13 12 30 20 37 17 9 -4 21 6 31 25 16 31 45 43
45 18 0 -25 -57 -102 -101 -138 -24 -20 -70 -51 -101 -69 -104 -58 -54 -45 62
16 61 32 130 86 130 100 0 3 15 27 33 53 19 25 37 54 40 64 4 10 11 16 16 13
5 -4 11 0 14 6 2 7 8 1 12 -14 11 -44 25 -32 25 21 0 78 20 73 22 -6 l2 -68 3
60 c5 85 13 99 28 45 l13 -45 2 35 c1 30 3 32 11 15 7 -15 8 -9 4 23 -3 23 -4
42 -2 42 2 0 17 -20 32 -45 16 -24 30 -43 32 -41 2 1 -4 25 -12 51 -8 27 -12
51 -10 53 2 2 15 -19 29 -47 25 -48 46 -66 46 -38 1 6 7 1 16 -13 14 -24 14
-23 9 25 l-6 50 17 -30 c23 -41 24 -42 35 -25 8 13 10 13 18 0 6 -8 17 -24 26
-35 15 -19 16 -19 11 -1 -5 16 -4 17 8 7 12 -10 13 -8 8 11 -5 21 -4 22 11 9
16 -12 16 -11 2 23 -9 21 -11 36 -5 36 5 0 10 -4 10 -9 0 -5 14 -16 31 -25 29
-14 30 -14 24 2 -21 50 -15 54 21 14 23 -28 39 -39 44 -32 4 7 13 2 25 -16 12
-19 19 -23 25 -14 6 9 12 5 23 -16 19 -36 132 -146 172 -166 82 -42 244 -50
271 -13 18 25 29 12 12 -14 -26 -41 -75 -55 -193 -55 l-110 -1 53 -15 c28 -8
52 -18 52 -22 0 -12 -69 -21 -110 -14 -99 16 -197 86 -248 178 l-24 43 6 -35
c15 -86 86 -190 162 -237 16 -10 13 -12 -26 -12 -42 -1 -49 2 -84 44 -21 25
-53 69 -72 98 -39 59 -42 54 -14 -28 11 -32 20 -60 20 -62 0 -2 -16 8 -36 23
-20 15 -49 50 -65 78 l-29 51 0 -36 c0 -20 13 -62 30 -95 16 -32 28 -60 26
-62 -9 -8 -63 70 -94 136 -24 51 -36 92 -40 139 -6 83 -19 59 -28 -55 -6 -69
-4 -85 19 -140 l25 -62 -28 0 c-24 0 -35 10 -64 58 -20 31 -39 74 -43 95 -8
54 -23 56 -23 4 0 -46 34 -172 49 -181 4 -3 11 -133 15 -288 3 -156 9 -364 13
-463 10 -252 21 -161 22 173 1 234 3 262 16 248 8 -8 15 -27 16 -43 1 -22 3
-19 12 17 l11 45 8 -70 c5 -38 13 -108 18 -155 6 -59 7 8 4 218 -4 182 -2 302
4 302 23 0 42 -39 42 -86 0 -130 62 -738 84 -834 31 -131 16 -282 -44 -440
-46 -122 -69 -208 -69 -263 l-1 -48 81 3 81 3 22 70 c13 39 39 103 60 143 48
96 30 84 -36 -24 -28 -46 -53 -82 -56 -79 -9 9 76 171 119 227 36 47 32 45
-32 -22 -52 -54 -70 -68 -64 -50 9 31 68 142 106 198 39 58 21 53 -25 -8 -64
-84 -54 -59 26 65 14 21 8 17 -21 -14 -23 -24 -41 -41 -41 -37 0 13 53 112 87
161 l34 50 -51 -54 c-27 -30 -50 -51 -50 -46 0 4 13 49 29 99 16 50 32 109 36
131 5 33 1 29 -23 -30 -31 -77 -75 -161 -68 -130 7 30 34 183 41 239 5 33 3
46 -4 41 -6 -3 -11 -18 -12 -33 0 -15 -9 -52 -19 -82 l-19 -55 4 45 c16 153
25 273 21 277 -3 3 -8 -12 -11 -33 -3 -22 -12 -66 -19 -99 l-14 -60 -1 65 c-1
36 -6 72 -11 80 -5 8 -10 11 -11 5 0 -5 -9 33 -19 85 -16 84 -27 240 -13 200
2 -8 7 -22 9 -30 5 -13 6 -13 15 0 8 11 9 0 5 -37 -3 -29 -1 -55 5 -58 10 -7
11 1 10 60 -1 22 2 54 7 70 7 24 11 8 23 -90 l14 -120 5 122 c3 67 8 125 12
128 4 4 14 -17 23 -46 8 -30 29 -78 45 -107 19 -35 24 -52 15 -48 -23 8 28
-67 110 -164 129 -154 148 -196 41 -92 -65 62 -61 53 24 -49 97 -118 100 -142
5 -44 l-87 90 64 -85 c137 -181 154 -222 47 -109 -74 77 -78 76 -17 -1 19 -25
44 -58 54 -75 18 -29 17 -29 -24 7 -23 21 -45 38 -48 38 -3 0 14 -24 38 -52
93 -111 111 -153 34 -81 l-39 38 42 -56 c39 -53 55 -87 29 -61 -25 25 -31 11
-6 -15 35 -38 80 -113 68 -113 -5 0 -10 5 -10 10 0 6 -4 10 -9 10 -6 0 6 -24
25 -52 43 -66 43 -80 2 -42 -18 16 -26 21 -18 10 8 -10 44 -77 80 -150 63
-125 87 -153 110 -129 5 4 5 89 0 188 -14 286 -56 416 -209 645 -38 58 -97
139 -131 180 -203 248 -225 294 -225 490 l0 125 58 3 c39 2 57 0 52 -7 -3 -6
2 -11 12 -11 15 0 14 -4 -7 -20 l-25 -20 38 15 c20 8 37 12 37 9 0 -4 -17 -22
-37 -41 l-38 -34 33 16 c38 18 41 11 10 -23 -24 -26 -23 -26 28 -5 14 5 15 3
5 -16 -7 -12 -19 -25 -27 -28 -8 -3 -14 -10 -14 -15 0 -6 12 -3 26 7 33 21 44
11 16 -15 -27 -26 -28 -34 -3 -20 32 17 36 11 10 -16 l-24 -26 23 6 c33 11 27
-1 -19 -31 -49 -33 -39 -41 16 -14 49 23 56 19 25 -14 -23 -24 -16 -37 8 -13
21 21 23 2 1 -25 -12 -17 -16 -27 -8 -27 8 0 7 -6 -4 -18 -25 -27 -21 -37 8
-18 29 19 31 15 10 -17 -20 -30 -5 -53 24 -38 24 13 26 9 10 -21 -10 -18 -9
-20 6 -14 13 5 16 2 11 -10 -4 -12 -1 -14 14 -9 18 6 19 4 10 -20 -14 -37 -13
-40 9 -21 15 14 20 14 25 4 8 -17 -1 45 -15 102 -6 25 -14 88 -18 140 -4 62
-13 107 -26 130 -41 78 -42 85 -24 184 11 58 14 62 53 81 63 29 63 29 26 -5
-29 -25 -31 -30 -12 -25 29 8 28 -3 -5 -38 l-28 -29 34 17 34 17 -22 -37 c-18
-31 -19 -36 -5 -31 15 6 15 5 0 -18 -26 -40 -19 -42 19 -6 39 37 45 31 15 -15
-11 -17 -15 -32 -9 -35 6 -4 3 -21 -7 -45 -15 -37 -15 -38 2 -25 16 14 17 13
11 -8 -4 -18 -2 -22 8 -18 11 4 13 -2 8 -27 -5 -31 -5 -31 11 -12 17 19 17 19
10 -10 -4 -16 -8 -50 -8 -75 -1 -25 -6 -52 -10 -60 -5 -8 4 -1 19 15 17 20 25
24 21 12 -3 -10 -9 -37 -12 -60 -4 -31 -3 -38 5 -27 8 11 11 2 12 -40 l1 -55
10 45 c13 55 15 50 23 -73 6 -78 10 -97 21 -93 10 4 14 -4 15 -27 1 -18 5 -43
9 -57 7 -21 8 -18 9 19 1 57 14 43 31 -34 13 -55 14 -57 20 -30 l7 30 11 -28
c7 -16 12 -37 12 -47 0 -10 7 -26 15 -34 9 -9 20 -40 25 -70 5 -30 13 -63 18
-73 5 -10 15 -58 22 -108 17 -132 20 -133 15 -4 -7 163 -27 266 -89 452 -87
259 -116 393 -146 662 -5 50 -12 104 -15 121 -5 28 -2 33 25 44 17 7 43 28 57
46 14 19 31 34 38 34 22 0 84 78 95 120 6 23 12 70 12 104 1 76 -23 134 -86
205 -53 60 -69 88 -85 155 -7 27 -20 61 -30 75 -27 39 -41 110 -41 206 0 53
-6 99 -15 122 -8 19 -15 51 -15 69 0 19 -11 55 -25 81 -46 88 -65 142 -65 185
0 87 -57 164 -187 252 -39 26 -98 46 -133 45 -8 0 -43 -10 -77 -22z m125 -59
c9 -9 12 -9 12 0 0 20 33 14 75 -14 98 -65 145 -132 145 -206 0 -24 9 -61 20
-83 11 -22 20 -44 20 -51 0 -12 -87 -82 -128 -103 -13 -7 -28 -11 -35 -8 -6 2
2 10 18 18 17 9 29 21 27 28 -1 7 3 19 9 27 8 10 9 14 0 14 -7 0 -4 15 9 40
26 52 25 57 -5 23 l-24 -28 9 35 c14 48 11 85 -2 43 -15 -46 -26 -41 -30 15
-3 41 -6 47 -23 44 -11 -2 -23 -10 -28 -18 -4 -7 -14 -11 -22 -8 -10 4 -15 0
-15 -14 0 -20 -14 -23 -37 -9 -7 5 -13 23 -13 42 0 51 -17 51 -23 -1 -4 -43
-3 -47 43 -93 63 -63 72 -115 34 -196 -37 -78 -49 -81 -39 -9 11 80 8 123 -10
140 -8 9 -15 22 -15 30 0 8 -4 12 -10 9 -5 -3 -12 6 -16 20 -6 24 -7 25 -25 9
-17 -15 -18 -15 -24 12 -10 46 -26 82 -41 95 -36 30 -214 -16 -250 -65 -15
-20 -16 -19 -9 19 8 51 29 83 63 97 91 38 206 98 199 104 -2 3 -16 0 -31 -5
-14 -6 -26 -7 -26 -3 0 16 62 43 117 51 32 5 60 9 64 10 3 0 10 -4 17 -11z
m-314 -27 c50 -28 44 -41 -19 -41 -35 0 -54 -4 -50 -10 3 -5 -2 -10 -11 -10
-16 0 -16 -1 2 -14 18 -13 15 -15 -33 -22 -29 -3 -53 -10 -53 -14 0 -5 12 -18
28 -29 18 -14 22 -20 11 -21 -8 0 -24 6 -34 14 -17 12 -21 12 -33 -5 -7 -10
-11 -23 -7 -28 3 -5 1 -12 -5 -16 -13 -8 -4 -86 12 -97 10 -7 10 -11 1 -15
-22 -8 -14 -18 23 -32 32 -12 85 -59 106 -96 4 -6 11 -31 17 -54 9 -41 9 -42
-40 -88 -27 -25 -57 -64 -66 -85 -9 -21 -20 -38 -24 -38 -10 0 -28 63 -35 120
-5 47 -2 54 50 128 17 26 26 48 22 58 -5 13 -12 7 -29 -27 -33 -66 -53 -72
-171 -49 -65 13 -104 16 -116 10 -24 -13 -80 -78 -80 -93 1 -7 7 -1 14 12 7
13 30 37 50 51 38 29 50 29 141 1 l30 -9 -38 -1 c-48 -1 -104 -25 -140 -59
-46 -44 -55 -71 -10 -31 50 45 117 72 169 67 l39 -4 -45 -21 -45 -21 46 3 46
3 -1 -40 c-1 -44 9 -59 19 -28 8 24 25 17 25 -10 0 -10 10 -26 21 -34 16 -11
20 -21 16 -38 -4 -14 -1 -33 7 -44 7 -10 16 -35 19 -54 3 -19 9 -44 13 -55 l7
-20 -23 20 -24 20 17 -27 c25 -40 6 -35 -27 7 -16 19 -35 35 -42 35 -15 0 -8
-17 32 -80 l16 -25 -23 25 c-13 14 -34 39 -47 55 l-23 30 17 -35 c9 -19 30
-53 46 -75 24 -32 19 -29 -23 15 -47 50 -50 51 -30 18 19 -32 20 -37 6 -32
-17 7 -85 136 -85 161 0 7 -14 28 -30 47 -27 31 -35 34 -86 35 -32 0 -72 8
-92 18 l-37 18 -3 76 -3 76 38 36 c47 46 61 47 34 3 -32 -51 -25 -50 25 4 l47
50 76 1 76 2 -77 14 c-43 8 -78 20 -78 25 0 5 10 18 23 29 27 22 10 25 -21 3
-38 -26 -24 -5 56 88 42 49 79 93 80 99 7 18 -42 9 -65 -13 -19 -17 -23 -19
-17 -5 3 9 10 17 15 17 5 0 9 5 9 11 0 5 -4 7 -10 4 -16 -10 -11 7 12 41 25
37 43 44 109 44 59 0 124 20 173 54 41 28 57 28 110 -3z m171 -213 c7 -18 16
-55 20 -81 5 -30 21 -67 41 -97 19 -27 34 -56 34 -65 0 -18 -31 -20 -49 -2
-11 10 -13 6 -7 -23 10 -57 -16 -6 -30 60 l-12 55 -2 -50 c-1 -27 -4 -44 -7
-37 -2 6 -9 9 -15 6 -6 -4 -15 0 -20 7 -8 12 -9 11 -5 -1 18 -59 17 -64 -5
-28 -20 34 -26 37 -54 32 -25 -5 -34 -1 -47 20 -16 23 -16 25 3 31 21 7 120
113 120 129 0 5 -14 -3 -32 -20 -21 -19 -29 -23 -25 -11 6 16 4 16 -23 2 -18
-9 -30 -11 -30 -5 0 22 -51 -25 -57 -52 -8 -38 -26 -30 -38 16 -16 66 33 116
135 136 74 16 90 12 105 -22z m-758 -82 c-5 -30 -3 -34 14 -31 13 3 19 -2 19
-14 0 -18 -29 -63 -30 -46 0 6 -15 -20 -34 -56 -32 -62 -34 -72 -37 -187 -4
-113 0 -141 15 -109 3 6 4 0 2 -15 -1 -15 0 -25 4 -23 4 2 16 -2 27 -10 17
-12 21 -28 25 -83 2 -50 11 -83 30 -121 23 -42 24 -50 9 -42 -43 24 -92 100
-111 177 -24 92 -49 124 -97 124 -58 0 -118 -44 -157 -115 l-17 -30 5 37 c6
44 57 113 101 135 36 18 65 43 65 55 0 13 -32 9 -64 -7 -28 -15 -28 -15 -22
13 4 15 17 59 29 97 16 54 22 64 25 45 4 -24 5 -23 17 10 6 19 17 35 24 35 14
0 40 42 41 65 0 9 13 21 30 27 18 7 40 29 57 57 15 25 30 46 32 46 2 0 1 -15
-2 -34z m603 -192 c0 -40 -15 -27 -26 23 -11 46 -11 47 7 24 11 -13 19 -34 19
-47z m633 -41 c20 -23 31 -69 19 -77 -6 -3 -15 6 -21 22 -6 15 -15 37 -21 50
-11 26 1 29 23 5z m-535 -26 c9 -11 1 -16 -41 -27 -41 -10 -63 -25 -107 -69
-66 -66 -84 -114 -71 -186 7 -38 6 -44 -4 -34 -36 40 -44 124 -16 184 44 94
199 180 239 132z m84 -43 c18 -9 66 -38 107 -65 79 -52 103 -58 127 -34 19 18
85 19 135 1 65 -23 106 -62 118 -113 7 -25 21 -57 32 -71 10 -14 19 -30 19
-37 0 -36 35 -119 65 -155 37 -44 45 -61 20 -40 -35 29 -22 0 20 -45 24 -27
43 -50 42 -52 -2 -1 -30 13 -63 32 l-59 35 60 -56 c54 -51 57 -56 31 -50 -17
4 -43 17 -58 28 -50 35 -40 14 13 -27 l50 -40 -33 -6 -33 -5 35 -17 35 -17
-72 4 c-40 3 -73 3 -73 1 0 -2 34 -14 76 -26 67 -20 74 -24 53 -32 -13 -5 -55
-7 -94 -4 -64 4 -67 3 -40 -9 17 -7 54 -16 84 -20 58 -7 53 -23 -9 -24 -34 -1
-34 -2 -10 -13 l25 -11 -32 -4 c-18 -2 -33 -8 -33 -13 0 -15 -126 -10 -187 7
-37 10 -68 29 -109 67 -52 47 -114 128 -114 149 0 19 31 6 44 -19 18 -34 96
-129 96 -117 0 5 -9 20 -20 34 -23 30 -26 48 -5 30 12 -10 15 -10 15 1 0 8
-22 37 -49 65 -41 41 -60 53 -106 64 -47 11 -64 22 -101 63 -25 28 -50 59 -56
70 -10 19 -8 19 21 -2 17 -12 33 -26 37 -32 3 -5 14 -7 24 -4 19 6 83 -32 161
-97 25 -21 53 -38 62 -38 10 0 28 -24 47 -62 16 -35 41 -76 55 -93 22 -26 25
-28 25 -10 0 11 -8 32 -17 45 l-17 25 28 -19 c16 -10 25 -12 21 -5 -6 9 -2 11
15 6 22 -6 1 16 -140 140 -19 17 -32 35 -28 39 4 4 29 -1 55 -11 34 -13 67
-38 110 -84 54 -57 62 -62 58 -39 -3 15 -10 40 -17 55 -6 16 -11 46 -9 67 1
23 -6 50 -16 65 -16 25 -16 25 2 11 17 -14 18 -13 12 4 -7 17 -6 17 9 5 15
-12 16 -11 10 9 -11 32 17 39 54 12 17 -12 33 -20 35 -18 3 2 -16 38 -42 79
-26 41 -55 96 -65 122 -27 70 -47 97 -97 128 -53 34 -74 28 -31 -8 40 -33 73
-98 64 -125 -5 -16 -8 -18 -15 -7 -6 10 -10 8 -18 -11 -7 -18 -10 -20 -10 -7
-1 10 -9 17 -19 17 -29 0 -82 -74 -82 -115 0 -22 29 -31 52 -16 16 10 19 10
16 -1 -6 -20 -88 -58 -125 -58 -46 0 -99 24 -144 65 -30 27 -48 35 -77 35 -48
0 -57 -8 -35 -32 29 -33 -3 -19 -73 32 -151 109 -165 136 -35 70 57 -28 83
-37 85 -28 2 7 9 32 15 54 16 61 59 131 97 162 44 35 43 59 -7 116 -44 50 -44
54 3 30z m-50 -21 c21 -19 24 -42 6 -44 -25 -2 -43 3 -59 17 -13 11 -18 12
-33 1 -22 -16 -17 -53 7 -51 13 2 15 -1 7 -11 -10 -12 -10 -65 0 -65 10 0 5
-42 -9 -85 -7 -22 -14 -46 -16 -52 -3 -9 -23 -3 -64 19 -53 28 -60 35 -65 70
-18 114 153 267 226 201z m523 -39 c7 -42 1 -53 -23 -36 -9 7 -29 18 -44 25
-32 13 -38 32 -8 23 11 -3 30 -9 43 -12 21 -5 21 -5 4 9 -14 11 -15 16 -5 20
23 10 26 7 33 -29z m-472 -31 c4 -3 -10 -24 -31 -47 -20 -23 -45 -52 -54 -66
-24 -34 -12 2 16 50 34 58 55 77 69 63z m-1171 -43 l16 45 -3 -95 c-2 -52 -4
-99 -5 -105 -7 -33 3 -77 25 -109 34 -51 31 -69 -4 -26 -16 19 -32 32 -36 28
-4 -3 4 -17 16 -29 l23 -23 -30 -8 c-16 -4 -36 -5 -45 -3 -16 6 -45 -21 -75
-70 -14 -23 -8 -20 26 16 25 25 38 36 29 25 -18 -22 -39 -61 -39 -70 0 -3 16
12 36 34 20 22 41 40 47 40 6 0 -1 -12 -15 -27 -14 -16 -31 -39 -38 -53 -9
-19 -4 -16 23 13 39 41 54 48 36 16 -10 -19 -7 -18 25 6 20 15 36 33 36 41 0
48 64 8 95 -60 12 -28 34 -63 48 -78 51 -54 10 -27 -48 32 -32 32 -62 57 -67
54 -4 -3 -8 -20 -8 -39 0 -22 -8 -41 -22 -55 -27 -25 -35 -19 -14 12 24 34 19
40 -9 13 -13 -14 -31 -25 -39 -25 -8 0 -16 -5 -18 -12 -3 -9 -12 -9 -36 1 -18
8 -35 11 -39 8 -11 -12 21 -39 86 -72 79 -40 66 -46 -22 -9 -72 30 -118 70
-142 125 -16 34 -16 42 -4 71 l14 33 6 -30 5 -30 20 34 c10 18 34 56 52 83 19
27 31 52 29 55 -3 3 -27 -15 -53 -39 -26 -23 -45 -38 -42 -33 33 59 88 211 88
246 0 28 8 54 23 76 l22 33 5 -43 5 -42 17 45z m456 -12 c7 -7 12 -19 12 -27
0 -31 59 -141 99 -184 64 -70 52 -80 -18 -17 -66 59 -64 48 4 -22 l60 -61 -50
27 -50 27 35 -30 c19 -17 61 -43 92 -59 31 -15 57 -32 57 -38 1 -6 -18 -31
-41 -56 -43 -45 -88 -68 -136 -68 -28 0 -188 79 -239 118 -34 25 -44 46 -18
36 8 -4 15 -4 15 0 0 9 -85 56 -134 72 -25 9 -46 19 -46 23 0 3 30 2 67 -4 65
-9 71 -13 128 -70 81 -80 174 -155 193 -155 28 0 132 42 132 54 0 6 -28 26
-63 44 -57 30 -64 37 -95 101 -32 67 -33 72 -31 185 1 64 5 116 9 116 3 0 11
-5 18 -12z m120 -55 c16 -21 32 -48 36 -59 12 -39 63 -101 126 -153 68 -57 95
-62 170 -36 24 8 45 14 47 12 7 -8 -44 -45 -76 -56 -60 -20 -109 -14 -134 15
-12 14 -56 60 -98 103 -42 42 -87 94 -100 116 -23 38 -59 112 -59 121 0 14 63
-31 88 -63z m-313 24 c8 -13 24 -59 35 -103 19 -73 25 -84 84 -144 35 -36 66
-73 70 -83 7 -22 -3 -17 -60 29 -31 25 -43 30 -47 20 -3 -8 1 -24 10 -36 15
-21 14 -21 -6 -8 -12 7 -31 28 -42 46 -12 17 -25 32 -30 32 -4 0 -6 7 -3 15 4
8 5 15 3 15 -2 0 -35 3 -74 6 -72 6 -116 20 -122 40 -2 6 6 22 17 35 12 13 18
17 15 9 -4 -8 19 11 50 43 31 32 55 61 53 63 -13 12 -77 -21 -105 -53 -41 -48
-43 -30 -2 26 48 67 125 91 154 48z m1166 -224 c-12 -20 -14 -14 -5 12 4 9 9
14 11 11 3 -2 0 -13 -6 -23z m-1206 -132 c35 -32 100 -78 146 -102 67 -36 84
-50 90 -74 10 -35 -13 -76 -72 -130 l-41 -37 -72 7 c-52 5 -81 14 -108 32 -46
31 -48 43 -7 43 23 0 30 4 26 15 -5 11 0 13 21 9 15 -3 45 -1 67 3 l40 9 -25
25 c-14 14 -34 36 -45 49 l-20 23 35 -18 35 -18 -40 39 c-22 22 -48 59 -58 84
-10 25 -25 57 -32 73 -8 15 -11 27 -8 27 3 0 34 -26 68 -59z m-115 -306 c25
-23 54 -46 65 -52 32 -19 8 -27 -37 -14 -49 15 -108 70 -108 100 0 28 24 18
80 -34z m625 -205 c21 -41 19 -57 -5 -35 -11 10 -20 29 -20 42 0 31 6 29 25
-7z m-475 -730 c6 -11 8 -20 6 -20 -3 0 -10 9 -16 20 -6 11 -8 20 -6 20 3 0
10 -9 16 -20z m364 -450 c7 -24 6 -24 -8 -6 -9 11 -16 29 -16 40 1 17 2 18 9
6 5 -8 12 -26 15 -40z"/>
<path d="M2458 4706 c-35 -18 -74 -46 -66 -46 3 0 25 9 49 20 33 14 66 20 129
20 101 0 91 15 -12 18 -48 2 -82 -3 -100 -12z"/>
<path d="M1933 4214 c-14 -14 -22 -28 -19 -32 4 -3 21 8 39 26 17 18 26 32 19
32 -7 0 -24 -12 -39 -26z"/>
<path d="M2418 4590 c-20 -11 -40 -25 -43 -31 -12 -18 4 -23 23 -6 9 9 38 25
62 36 36 16 40 21 20 20 -14 0 -42 -9 -62 -19z"/>
<path d="M2660 4083 c0 -9 -69 -116 -116 -181 -26 -35 -8 -39 27 -6 42 40 109
177 94 192 -3 3 -5 1 -5 -5z"/>
<path d="M2674 4018 c-14 -29 -35 -63 -47 -75 l-20 -23 21 0 c12 0 28 11 37
24 14 21 46 126 39 126 -2 0 -15 -24 -30 -52z"/>
<path d="M2771 3953 c-32 -39 -46 -83 -38 -124 3 -16 5 -12 6 14 1 44 13 71
49 109 14 15 23 30 20 33 -3 4 -20 -11 -37 -32z"/>
<path d="M2876 3930 c-40 -35 -66 -86 -65 -127 0 -21 3 -16 14 22 9 36 25 61
58 92 52 49 46 59 -7 13z"/>
<path d="M2806 3931 c-17 -19 -50 -111 -42 -118 2 -2 11 17 20 43 9 26 23 56
33 66 9 10 14 20 11 23 -3 3 -13 -3 -22 -14z"/>
<path d="M1696 3947 c-3 -19 -13 -42 -22 -53 -14 -18 -15 -18 -8 6 l6 25 -22
-21 c-25 -24 -20 -44 10 -44 23 0 35 21 45 78 8 49 0 58 -9 9z"/>
<path d="M2020 3299 c-23 -43 -155 -183 -182 -193 -35 -13 -36 -26 -3 -26 34
0 95 57 148 139 42 63 61 101 52 101 -2 0 -9 -9 -15 -21z"/>
<path d="M2622 2600 c0 -14 2 -19 5 -12 2 6 2 18 0 25 -3 6 -5 1 -5 -13z"/>
<path d="M1856 2207 c3 -10 9 -15 12 -12 3 3 0 11 -7 18 -10 9 -11 8 -5 -6z"/>
<path d="M1950 1861 c0 -5 7 -28 15 -51 l15 -43 -21 19 c-22 19 -22 19 -16 -7
9 -34 58 -141 63 -136 2 2 -2 25 -10 50 -8 26 -12 47 -10 47 2 0 19 -34 38
-75 35 -76 51 -97 36 -47 -39 130 -55 173 -76 210 -24 41 -34 51 -34 33z"/>
<path d="M1730 1640 c0 -5 5 -10 10 -10 6 0 10 5 10 10 0 6 -4 10 -10 10 -5 0
-10 -4 -10 -10z"/>
<path d="M3857 1364 c-4 -4 -7 -143 -7 -309 0 -252 2 -305 14 -315 11 -8 40
-10 105 -5 l90 8 3 126 3 126 95 5 95 5 0 55 0 55 -97 3 -97 3 -3 122 -3 122
-95 3 c-53 1 -99 0 -103 -4z"/>
<path d="M4094 1356 c-3 -7 -4 -33 -2 -57 l3 -44 60 -5 c53 -4 60 -8 65 -30 6
-24 8 -25 100 -25 l95 0 3 65 c6 117 16 110 -164 110 -122 0 -156 -3 -160 -14z"/>
<path d="M2027 1291 l-67 -69 0 -64 0 -64 68 -67 68 -67 131 0 132 0 3 -117 3
-118 34 -3 c29 -3 41 4 102 66 l69 69 0 72 0 73 -67 70 -68 69 -135 -2 -135
-3 -5 109 -5 110 -30 3 c-27 3 -40 -7 -98 -67z"/>
<path d="M2197 1353 c-4 -3 -7 -30 -7 -59 l0 -53 82 -3 83 -3 5 -30 c4 -20 11
-30 23 -29 9 0 51 1 92 2 l75 2 0 31 c0 23 -13 44 -57 90 l-56 59 -117 0 c-64
0 -120 -3 -123 -7z"/>
<path d="M2636 1343 c-3 -10 -4 -31 -1 -48 2 -16 4 -40 4 -52 l1 -23 264 0
c293 0 276 -4 276 70 0 74 17 70 -275 70 -242 0 -264 -1 -269 -17z"/>
<path d="M3257 1353 c-2 -5 -2 -146 1 -315 l4 -308 99 0 99 0 0 315 0 315 -99
0 c-55 0 -102 -3 -104 -7z"/>
<path d="M575 1337 c-3 -7 -4 -149 -3 -317 l3 -305 80 -3 c44 -2 90 0 102 3
l23 5 0 299 c0 165 -3 306 -6 315 -5 13 -24 16 -100 16 -67 0 -96 -4 -99 -13z"/>
<path d="M965 1338 c-3 -7 -6 -62 -7 -123 l-3 -110 -72 -3 -73 -3 0 -64 0 -65
75 0 75 0 0 -64 c0 -34 3 -91 6 -125 l7 -61 99 0 98 0 -2 313 -3 312 -98 3
c-72 2 -99 -1 -102 -10z"/>
<path d="M1273 1334 c-3 -9 -4 -124 -1 -256 l5 -240 59 -59 58 -59 83 0 83 0
0 59 0 60 -37 3 -38 3 -3 253 -2 252 -100 0 c-83 0 -102 -3 -107 -16z"/>
<path d="M1668 1098 l-3 -253 -35 -5 -35 -5 0 -55 0 -55 79 -3 78 -3 64 64 64
64 0 100 c0 55 -3 168 -7 251 l-6 152 -98 0 -99 0 -2 -252z"/>
<path d="M2807 1194 c-4 -4 -7 -110 -7 -236 l0 -228 105 0 c77 0 107 3 111 13
2 7 1 112 -3 232 l-8 220 -95 3 c-53 1 -99 0 -103 -4z"/>
<path d="M3607 934 c-4 -4 -7 -22 -7 -40 0 -32 -1 -33 -47 -36 l-48 -3 0 -60
0 -60 140 0 140 0 0 100 0 100 -85 3 c-47 1 -89 0 -93 -4z"/>
<path d="M4293 923 l-83 -4 0 -29 c0 -28 -1 -29 -57 -32 l-58 -3 0 -55 0 -55
163 -3 162 -2 0 89 c0 72 -3 90 -16 95 -9 3 -19 5 -22 4 -4 -1 -44 -4 -89 -5z"/>
<path d="M2013 913 c-43 -4 -49 -12 -43 -53 1 -8 24 -43 52 -77 l50 -63 124 0
c122 0 124 0 130 24 3 13 4 38 2 57 l-3 34 -75 5 -75 5 -5 35 -5 35 -55 1
c-30 0 -74 -1 -97 -3z"/>
<path d="M4751 14 c0 -11 3 -14 6 -6 3 7 2 16 -1 19 -3 4 -6 -2 -5 -13z"/>
</g>
</svg>
